{"title":"Kingsman, The Secret Service 2015 DVD9rip English Klam","uid":11930289,"size":1968704887,"categoryP":"video","categoryS":"movies","magnet":"?xt=urn:btih:6e6b86835ba86f113251c85f36be318e4d084521&amp;dn=Kingsman%2C+The+Secret+Service+2015+DVD9rip+English+Klam&amp;tr=udp%3A%2F%2Ftracker.openbittorrent.com%3A80&amp;tr=udp%3A%2F%2Fopen.demonii.com%3A1337&amp;tr=udp%3A%2F%2Ftracker.coppersurfer.tk%3A6969&amp;tr=udp%3A%2F%2Fexodus.desync.com%3A6969","seeders":0,"leechers":1,"uploader":"Klambake","files":6,"time":1431776418,"description":" &lt;a href=&quot;http://i.imgur.com/recwz4v.jpg&quot; rel=&quot;nofollow&quot; target=&quot;_NEW&quot;&gt;http://i.imgur.com/recwz4v.jpg&lt;/a&gt;\n\nWith: Colin Firth, Taron Egerton en Samuel L. Jackson\n\nGary (Taron Egerton), een jongeman wiens leven dreigt te ontsporen, vult zijn dagen door elke avond te zuipen met vrienden. Harry Hart (Colin Firth), een veteraan MI6 agent van een geheime organisatie, probeert hem te redden en zodoende niet te laten omgaan met de verkeerde mensen. Hij neemt hem onder zijn vleugels en zorgt ervoor dat hij deelneemt aan een trainingsprogramma van de 'Kingsman: The Secret Service', precies op het moment dat de wereld wordt bedreigd door een IT-genie met kwaadaardige bedoelingen.\n\nA spy organization recruits an unrefined, but promising street kid into the agency's ultra-competitive training program, just as a global threat emerges from a twisted tech genius.\n &lt;a href=&quot;\nhttp://www.imdb.com/title/tt2802144&quot; rel=&quot;nofollow&quot; target=&quot;_NEW&quot;&gt;\nhttp://www.imdb.com/title/tt2802144&lt;/a&gt;\n\n--------------------- Dutch Friends 4ever ---------------------\n---------------------------------------------------------------\n- Bezoek ook eens mijn vrienden op: &lt;a href=&quot; http://www.Film-Test.nl&quot; rel=&quot;nofollow&quot; target=&quot;_NEW&quot;&gt; http://www.Film-Test.nl&lt;/a&gt; --\n----- voor mijn Nederlandse Sync. ondertitels ---- en meer ----\n------- http://www.Film-Test.nl ---- Over Films en meer -------\n---------------------------------------------------------------\n &lt;a href=&quot;\nhttp://i.imgur.com/oUwU7Mq.jpg&quot; rel=&quot;nofollow&quot; target=&quot;_NEW&quot;&gt;\nhttp://i.imgur.com/oUwU7Mq.jpg&lt;/a&gt; &lt;a href=&quot;\nhttp://i.imgur.com/9lLFDSe.jpg&quot; rel=&quot;nofollow&quot; target=&quot;_NEW&quot;&gt;\nhttp://i.imgur.com/9lLFDSe.jpg&lt;/a&gt; &lt;a href=&quot;\nhttp://i.imgur.com/Gi5FNTU.jpg&quot; rel=&quot;nofollow&quot; target=&quot;_NEW&quot;&gt;\nhttp://i.imgur.com/Gi5FNTU.jpg&lt;/a&gt;\n\nGeneral:\n\nComplete name                            : KingsmanThe Secret Service.avi\nFormat                                   : AVI\nFormat/Info                              : Audio Video Interleave\nFile size                                : 1.83 GiB\nDuration                                 : 2h 9mn\nOverall bit rate                         : 2 027 Kbps\n\nVideo:\n\nFormat                                   : MPEG-4 Visual\nFormat profile                           : Simple@L3\nFormat settings, BVOP                    : No\nFormat settings, QPel                    : No\nFormat settings, GMC                     : No warppoints\nFormat settings, Matrix                  : Default (H.263)\nCodec ID                                 : XVID\nCodec ID/Hint                            : XviD\nDuration                                 : 2h 9mn\nSource duration                          : 2h 9mn\nBit rate                                 : 1 570 Kbps\nWidth                                    : 720 pixels\nHeight                                   : 304 pixels\nDisplay aspect ratio                     : 2.35:1\nFrame rate                               : 25.000 fps\nColor space                              : YUV\nChroma subsampling                       : 4:2:0\nBit depth                                : 8 bits\nScan type                                : Progressive\nCompression mode                         : Lossy\nBits/(Pixel*Frame)                       : 0.287\nStream size                              : 1.42 GiB (77%)\nWriting library                          : XviD 1.1.2 (UTC 2006-11-01)\n\nAudio:\n\nFormat                                   : AC-3\nFormat/Info                              : Audio Coding 3\nMode extension                           : CM (complete main)\nFormat settings, Endianness              : Big\nCodec ID                                 : 2000\nDuration                                 : 2h 8mn\nBit rate mode                            : Constant\nBit rate                                 : 448 Kbps\nChannel(s)                               : 6 channels\nChannel positions                        : Front: L C R, Side: L R, LFE\nSampling rate                            : 48.0 KHz\nBit depth                                : 16 bits\nCompression mode                         : Lossy\nStream size                              : 413 MiB (22%)\nAlignment                                : Aligned on interleaves\nInterleave, duration                     : 32 ms (0.80 video frame)","torrent":{"xt":"urn:btih:6e6b86835ba86f113251c85f36be318e4d084521","amp;dn":"Kingsman%2C+The+Secret+Service+2015+DVD9rip+English+Klam","amp;tr":["udp%3A%2F%2Ftracker.openbittorrent.com%3A80","udp%3A%2F%2Fopen.demonii.com%3A1337","udp%3A%2F%2Ftracker.coppersurfer.tk%3A6969","udp%3A%2F%2Fexodus.desync.com%3A6969"],"infoHash":"6e6b86835ba86f113251c85f36be318e4d084521","infoHashBuffer":{"type":"Buffer","data":[110,107,134,131,91,168,111,17,50,81,200,95,54,190,49,142,77,8,69,33]},"announce":[],"urlList":[]}}